<?xml version="1.0" standalone="no"?>
<!DOCTYPE svg PUBLIC "-//W3C//DTD SVG 20010904//EN"
 "http://www.w3.org/TR/2001/REC-SVG-20010904/DTD/svg10.dtd">
<svg version="1.0" xmlns="http://www.w3.org/2000/svg"
 width="224.000000pt" height="225.000000pt" viewBox="0 0 224.000000 225.000000"
 preserveAspectRatio="xMidYMid meet">

<g transform="translate(0.000000,225.000000) scale(0.100000,-0.100000)"
fill="#000000" stroke="none">
<path d="M1070 2191 c-14 -5 -173 -92 -354 -193 -289 -163 -332 -190 -352
-224 l-24 -39 0 -608 c0 -669 -1 -653 61 -699 19 -14 176 -105 351 -202 289
-161 321 -176 365 -176 44 0 72 13 279 128 427 238 454 254 474 288 19 30 20
52 20 656 l0 625 -23 34 c-18 27 -94 74 -360 222 -341 191 -379 208 -437 188z
m375 -267 c154 -86 291 -166 303 -178 48 -43 52 -62 52 -276 l0 -200 -25 0
-25 0 0 193 c0 165 -3 196 -18 220 -12 20 -99 74 -302 188 -248 139 -290 159
-320 156 -44 -6 -555 -288 -592 -328 l-28 -29 0 -200 0 -200 -30 0 -30 0 0
193 c0 222 9 257 77 300 35 23 434 246 528 296 82 44 100 38 410 -135z m-574
-292 c18 -20 29 -43 29 -62 0 -27 -3 -30 -34 -30 -27 0 -36 5 -42 23 -9 30
-22 37 -67 37 -31 0 -39 -4 -47 -26 -13 -32 -13 -175 -1 -207 18 -48 102 -42
115 7 5 22 12 26 41 26 30 0 35 -3 35 -25 0 -68 -47 -105 -135 -105 -66 0
-106 18 -123 55 -16 35 -16 255 0 291 18 39 62 55 137 51 57 -3 67 -6 92 -35z
m199 -47 c0 -47 3 -85 8 -85 4 0 30 37 57 83 49 80 51 82 93 85 23 2 42 0 42
-3 0 -4 -27 -49 -61 -100 -37 -58 -58 -99 -53 -107 4 -7 34 -50 66 -95 32 -44
58 -84 58 -87 0 -3 -19 -6 -42 -6 -42 0 -44 2 -98 80 -30 44 -58 79 -62 80 -5
0 -8 -36 -8 -80 l0 -80 -40 0 -40 0 0 165 c0 103 -4 165 -10 165 -5 0 -10 16
-10 35 l0 35 50 0 50 0 0 -85z m350 -65 c0 -137 2 -152 20 -170 24 -24 48 -25
78 -4 21 15 22 21 22 170 l0 154 41 0 41 0 -4 -164 c-3 -148 -5 -167 -24 -193
-44 -58 -164 -65 -216 -12 -28 27 -28 28 -28 163 0 114 -2 136 -15 136 -10 0
-15 11 -15 35 l0 35 50 0 50 0 0 -150z m-612 -434 c32 -18 77 -45 102 -59 58
-33 130 -107 173 -180 l35 -57 31 55 c43 76 133 163 211 204 36 19 77 42 92
53 42 29 51 24 44 -23 l-7 -42 35 27 c19 14 37 26 40 26 3 0 6 -23 6 -52 l0
-52 28 27 c31 29 48 34 54 15 2 -7 0 -132 -5 -278 -9 -248 -11 -266 -30 -288
-38 -42 -111 -81 -192 -102 -109 -30 -193 -71 -253 -125 -27 -25 -53 -45 -56
-45 -4 0 -26 18 -49 41 -50 48 -158 103 -247 125 -78 19 -147 55 -189 98 l-30
31 -12 268 c-13 297 -10 311 39 264 15 -15 31 -27 35 -27 4 0 4 20 1 44 -8 57
8 67 48 30 l30 -29 -2 35 c-3 62 -6 61 68 16z m353 21 c43 -33 49 -83 14 -121
-48 -51 -135 -19 -135 50 0 64 74 107 121 71z"/>
<path d="M770 1053 c0 -31 15 -43 97 -77 45 -19 97 -44 115 -56 l33 -23 -35
37 c-28 31 -188 136 -205 136 -3 0 -5 -8 -5 -17z"/>
<path d="M1388 1030 c-75 -43 -148 -99 -148 -112 0 -5 13 0 29 11 16 12 65 35
110 52 76 29 81 33 81 60 0 16 -1 29 -2 28 -2 0 -33 -18 -70 -39z"/>
<path d="M700 999 c0 -32 35 -57 97 -68 32 -7 86 -22 121 -36 78 -29 65 -7
-15 26 -31 13 -90 40 -130 61 -66 33 -73 34 -73 17z"/>
<path d="M1491 994 c-19 -13 -61 -32 -94 -43 -52 -18 -157 -76 -157 -87 0 -3
18 5 40 16 23 11 84 32 138 46 53 14 101 29 105 33 5 5 7 20 5 34 l-3 25 -34
-24z"/>
<path d="M624 887 c3 -45 8 -152 12 -238 l6 -156 32 -25 c45 -36 83 -54 155
-72 84 -21 175 -63 228 -103 l43 -33 0 240 0 239 -70 49 c-73 52 -149 84 -241
102 -31 6 -82 26 -114 45 l-57 35 6 -83z m246 -142 c30 0 71 3 91 8 35 7 36 6
47 -32 19 -61 18 -61 -48 -54 l-59 6 5 -34 c2 -19 8 -61 13 -94 5 -33 7 -63 4
-67 -2 -5 -27 -8 -55 -8 l-51 0 7 83 c4 45 10 91 13 101 5 17 1 18 -28 13 -19
-3 -44 -9 -56 -13 -20 -5 -23 -3 -23 18 0 14 5 39 11 56 10 29 13 31 42 24 18
-4 57 -7 87 -7z"/>
<path d="M1586 951 c-10 -16 -91 -48 -174 -69 -91 -23 -182 -68 -237 -116
l-36 -31 3 -232 3 -232 58 39 c60 39 118 63 243 99 51 15 83 31 112 58 l41 38
6 228 c5 155 4 227 -3 227 -6 0 -13 -4 -16 -9z m-319 -231 c3 -16 9 -30 13
-30 4 0 10 14 14 30 3 17 12 30 20 30 12 0 12 -9 -3 -62 -10 -37 -23 -63 -31
-63 -8 0 -21 26 -31 63 -15 53 -15 62 -3 62 8 0 17 -13 21 -30z m143 20 c0 -5
-11 -10 -25 -10 -16 0 -25 -6 -25 -15 0 -9 9 -15 25 -15 14 0 25 -4 25 -10 0
-5 -11 -10 -25 -10 -33 0 -33 -28 0 -32 38 -5 31 -23 -10 -26 l-35 -3 0 65 0
66 35 0 c19 0 35 -4 35 -10z m94 -12 c8 -13 8 -23 -2 -38 -9 -15 -10 -26 -1
-41 18 -34 -1 -36 -27 -4 -23 29 -24 29 -22 6 2 -13 -3 -26 -9 -28 -10 -3 -13
13 -13 62 l0 66 31 -3 c18 -2 37 -11 43 -20z m-204 -179 c0 -36 4 -49 14 -49
11 0 16 14 18 50 4 64 22 66 26 3 3 -58 -7 -75 -43 -75 -15 0 -31 6 -36 13
-10 16 -12 103 -3 112 15 14 24 -7 24 -54z m114 34 l14 -28 13 28 c19 43 34
27 37 -41 2 -51 0 -62 -13 -62 -10 0 -15 10 -15 33 -1 28 -2 30 -12 13 -11
-19 -11 -19 -24 -1 -13 17 -14 16 -14 -13 0 -18 -4 -32 -10 -32 -6 0 -10 28
-10 65 0 70 11 82 34 38z"/>
<path d="M1452 714 c4 -21 22 -23 26 -1 2 10 -3 17 -13 17 -10 0 -15 -6 -13
-16z"/>
<path d="M1092 1068 c-25 -25 -6 -68 30 -68 9 0 22 9 28 20 22 40 -26 80 -58
48z"/>
</g>
</svg>
