<svg width="400" height="300" viewBox="0 0 400 300" xmlns="http://www.w3.org/2000/svg">
  <!-- 배경 -->
  <rect width="400" height="300" fill="#ffffff"/>
  
  <!-- 헤더 -->
  <rect x="20" y="20" width="360" height="50" rx="8" fill="#006272"/>
  <text x="40" y="50" fill="white" font-family="Arial" font-size="18">호실 관리</text>
  
  <!-- 층별 선택 -->
  <rect x="20" y="90" width="360" height="40" rx="4" fill="#f3f4f6"/>
  <text x="40" y="115" fill="#111827" font-family="Arial" font-size="14">3층</text>
  <circle cx="80" y="110" r="10" fill="#006272"/>
  <text x="120" y="115" fill="#111827" font-family="Arial" font-size="14">4층</text>
  <circle cx="160" y="110" r="10" fill="#e5e7eb"/>
  <text x="200" y="115" fill="#111827" font-family="Arial" font-size="14">5층</text>
  <circle cx="240" y="110" r="10" fill="#e5e7eb"/>
  
  <!-- 호실 그리드 -->
  <rect x="20" y="150" width="110" height="60" rx="8" fill="white" stroke="#006272" stroke-width="2"/>
  <text x="45" y="175" fill="#111827" font-family="Arial" font-size="16" font-weight="bold">301호</text>
  <text x="40" y="195" fill="#6b7280" font-family="Arial" font-size="12">2/2명</text>
  
  <rect x="145" y="150" width="110" height="60" rx="8" fill="white" stroke="#006272" stroke-width="2"/>
  <text x="170" y="175" fill="#111827" font-family="Arial" font-size="16" font-weight="bold">302호</text>
  <text x="165" y="195" fill="#6b7280" font-family="Arial" font-size="12">1/2명</text>
  
  <rect x="270" y="150" width="110" height="60" rx="8" fill="white" stroke="#006272" stroke-width="2"/>
  <text x="295" y="175" fill="#111827" font-family="Arial" font-size="16" font-weight="bold">303호</text>
  <text x="290" y="195" fill="#6b7280" font-family="Arial" font-size="12">2/2명</text>
  
  <rect x="20" y="220" width="110" height="60" rx="8" fill="white" stroke="#006272" stroke-width="2"/>
  <text x="45" y="245" fill="#111827" font-family="Arial" font-size="16" font-weight="bold">304호</text>
  <text x="40" y="265" fill="#6b7280" font-family="Arial" font-size="12">1/2명</text>
  
  <rect x="145" y="220" width="110" height="60" rx="8" fill="white" stroke="#006272" stroke-width="2"/>
  <text x="170" y="245" fill="#111827" font-family="Arial" font-size="16" font-weight="bold">305호</text>
  <text x="165" y="265" fill="#6b7280" font-family="Arial" font-size="12">2/2명</text>
  
  <rect x="270" y="220" width="110" height="60" rx="8" fill="white" stroke="#006272" stroke-width="2"/>
  <text x="295" y="245" fill="#111827" font-family="Arial" font-size="16" font-weight="bold">306호</text>
  <text x="290" y="265" fill="#6b7280" font-family="Arial" font-size="12">0/2명</text>
</svg> 